<?xml version="1.0" encoding="UTF-8" standalone="no"?>
<svg
   xmlns:dc="http://purl.org/dc/elements/1.1/"
   xmlns:cc="http://creativecommons.org/ns#"
   xmlns:rdf="http://www.w3.org/1999/02/22-rdf-syntax-ns#"
   xmlns:svg="http://www.w3.org/2000/svg"
   xmlns="http://www.w3.org/2000/svg"
   viewBox="0 0 66.145967 9.030762"
   height="34.128941"
   width="250"
   version="1.1"
   id="svg834">
  <metadata
     id="metadata840">
    <rdf:RDF>
      <cc:Work
         rdf:about="">
        <dc:format>image/svg+xml</dc:format>
        <dc:type
           rdf:resource="http://purl.org/dc/dcmitype/StillImage" />
        <dc:title></dc:title>
      </cc:Work>
    </rdf:RDF>
  </metadata>
  <defs
     id="defs838" />
  <g
     style="font-weight:400;font-size:17.5px;line-height:125%;font-family:sans-serif;letter-spacing:0;word-spacing:0"
     aria-label="🔪🔪🔪🔪🔪🔪"
     font-weight="400"
     font-size="17.5"
     letter-spacing="0"
     word-spacing="0"
     id="g832"
     transform="matrix(1.9420994,0,0,1.9420994,-0.00291124,0)">
    <path
       d="m 4.67,0.443 q 0,0.16 -0.114,0.283 Q 4.44,0.848 4.164,0.873 3.889,0.898 3.721,1.216 3.554,1.536 3.314,1.709 3.077,1.883 2.919,1.883 2.812,1.883 2.751,1.906 2.693,1.929 2.693,1.99 l 0.305,0.56 q 0.013,0.025 0.018,0.054 0.007,0.03 0.007,0.055 0,0.056 -0.025,0.104 Q 2.975,2.81 2.93,2.842 L 0.353,4.61 Q 0.292,4.65 0.226,4.65 0.118,4.65 0.059,4.58 0,4.513 0,4.291 0,3.83 0.192,3.432 0.384,3.034 0.95,2.464 1.515,1.894 2.023,1.49 L 2.098,1.431 Q 2.109,1.418 2.132,1.406 L 2.521,1.065 3.007,0.645 3.287,0.405 Q 3.491,0.231 3.706,0.115 3.92,0 4.133,0 4.336,0 4.503,0.129 4.671,0.255 4.671,0.443 Z M 0.225,4.291 q 0.013,0.077 0.06,0.077 0.037,0 0.082,-0.034 L 0.46,4.268 2.696,2.733 Q 2.723,2.704 2.743,2.688 2.766,2.67 2.766,2.625 2.766,2.607 2.761,2.595 2.757,2.582 2.755,2.568 L 2.318,1.766 2.275,1.691 Q 2.255,1.655 2.212,1.653 2.189,1.653 2.169,1.659 2.151,1.664 1.816,1.953 1.482,2.24 1.106,2.625 0.731,3.007 0.559,3.253 0.388,3.5 0.306,3.751 0.225,4.001 0.225,4.291 Z M 2.966,1.42 q 0,-0.043 -0.034,-0.082 -0.034,-0.04 -0.104,-0.04 -0.043,0 -0.077,0.03 -0.033,0.028 -0.033,0.094 0,0.05 0.031,0.088 0.034,0.036 0.097,0.036 0.057,0 0.089,-0.04 Q 2.966,1.465 2.966,1.42 Z M 3.8,0.683 Q 3.8,0.64 3.764,0.6 3.73,0.561 3.66,0.561 q -0.04,0 -0.077,0.031 -0.033,0.03 -0.033,0.09 0,0.048 0.033,0.087 0.034,0.038 0.093,0.038 0.059,0 0.09,-0.038 Q 3.8,0.728 3.8,0.683 Z M 4.506,0.409 Q 4.506,0.276 4.379,0.201 4.253,0.124 4.076,0.124 q -0.04,0 -0.104,0.018 -0.063,0.016 -0.063,0.041 0,0.03 0.165,0.1 Q 4.241,0.35 4.3,0.5 l 0.01,0.036 q 0.008,0.038 0.024,0.06 0.018,0.021 0.043,0.021 0.04,0 0.084,-0.065 0.045,-0.068 0.045,-0.143 z m 6.044,0.034 q 0,0.16 -0.116,0.283 Q 10.318,0.848 10.043,0.873 9.767,0.898 9.6,1.216 9.432,1.536 9.193,1.709 8.955,1.883 8.797,1.883 8.691,1.883 8.63,1.906 8.57,1.929 8.57,1.99 l 0.306,0.56 q 0.014,0.025 0.018,0.054 0.007,0.03 0.007,0.055 0,0.056 -0.025,0.104 Q 8.853,2.81 8.808,2.842 L 6.231,4.61 Q 6.17,4.65 6.104,4.65 5.996,4.65 5.937,4.58 5.878,4.513 5.878,4.291 5.878,3.83 6.07,3.432 6.263,3.034 6.828,2.464 7.393,1.894 7.902,1.49 L 7.976,1.431 Q 7.988,1.418 8.01,1.406 L 8.399,1.065 8.885,0.645 9.165,0.405 Q 9.369,0.231 9.584,0.115 9.798,0 10.01,0 q 0.203,0 0.37,0.129 0.168,0.126 0.168,0.314 z M 6.101,4.291 q 0.014,0.077 0.061,0.077 0.036,0 0.081,-0.034 L 6.336,4.268 8.572,2.733 Q 8.599,2.704 8.62,2.688 8.642,2.67 8.642,2.625 8.642,2.607 8.638,2.595 8.633,2.582 8.631,2.568 L 8.195,1.766 8.152,1.691 Q 8.132,1.655 8.088,1.653 8.066,1.653 8.045,1.659 8.027,1.664 7.693,1.953 7.358,2.24 6.983,2.625 6.607,3.007 6.436,3.253 6.264,3.5 6.182,3.751 6.101,4.001 6.101,4.291 Z M 8.844,1.42 q 0,-0.043 -0.033,-0.082 -0.034,-0.04 -0.104,-0.04 -0.043,0 -0.077,0.03 -0.034,0.028 -0.034,0.094 0,0.05 0.031,0.088 0.034,0.036 0.098,0.036 0.056,0 0.088,-0.04 Q 8.844,1.465 8.844,1.42 Z M 9.68,0.683 Q 9.68,0.64 9.643,0.601 9.61,0.561 9.539,0.561 q -0.04,0 -0.076,0.031 -0.034,0.03 -0.034,0.09 0,0.048 0.034,0.087 0.034,0.038 0.092,0.038 0.06,0 0.09,-0.038 Q 9.68,0.728 9.68,0.683 Z m 0.705,-0.274 q 0,-0.133 -0.127,-0.208 -0.126,-0.077 -0.303,-0.077 -0.04,0 -0.104,0.018 -0.063,0.016 -0.063,0.041 0,0.03 0.165,0.1 0.168,0.067 0.226,0.217 l 0.01,0.036 q 0.008,0.038 0.024,0.06 0.018,0.021 0.043,0.021 0.04,0 0.084,-0.065 0.045,-0.068 0.045,-0.143 z m 6.042,0.034 q 0,0.16 -0.115,0.283 -0.115,0.122 -0.391,0.147 -0.276,0.025 -0.443,0.343 -0.168,0.32 -0.407,0.493 -0.238,0.174 -0.396,0.174 -0.106,0 -0.167,0.023 -0.059,0.023 -0.059,0.084 l 0.305,0.56 q 0.014,0.025 0.018,0.054 0.007,0.03 0.007,0.055 0,0.056 -0.025,0.104 -0.022,0.047 -0.068,0.079 L 12.11,4.61 q -0.061,0.04 -0.127,0.04 -0.108,0 -0.167,-0.07 -0.059,-0.067 -0.059,-0.289 0,-0.461 0.193,-0.859 0.192,-0.398 0.757,-0.968 0.565,-0.57 1.074,-0.974 l 0.074,-0.059 q 0.012,-0.013 0.034,-0.025 l 0.39,-0.341 0.485,-0.42 0.28,-0.24 Q 15.248,0.231 15.463,0.115 15.678,0 15.89,0 q 0.204,0 0.371,0.129 0.167,0.126 0.167,0.314 z M 11.98,4.291 q 0.014,0.077 0.061,0.077 0.036,0 0.082,-0.034 l 0.092,-0.066 2.236,-1.535 q 0.027,-0.029 0.048,-0.045 0.022,-0.018 0.022,-0.063 0,-0.018 -0.004,-0.03 Q 14.512,2.582 14.51,2.568 L 14.074,1.766 14.031,1.691 q -0.02,-0.036 -0.064,-0.038 -0.022,0 -0.042,0.006 Q 13.906,1.664 13.572,1.953 13.237,2.24 12.862,2.625 12.487,3.007 12.315,3.253 12.143,3.5 12.062,3.751 11.98,4.001 11.98,4.291 Z M 14.723,1.42 q 0,-0.043 -0.034,-0.082 -0.034,-0.04 -0.104,-0.04 -0.043,0 -0.077,0.03 -0.034,0.028 -0.034,0.094 0,0.05 0.032,0.088 0.033,0.036 0.097,0.036 0.056,0 0.088,-0.04 0.032,-0.041 0.032,-0.086 z m 0.834,-0.737 q 0,-0.043 -0.036,-0.082 -0.034,-0.04 -0.104,-0.04 -0.041,0 -0.077,0.031 -0.034,0.03 -0.034,0.09 0,0.048 0.034,0.087 0.034,0.038 0.093,0.038 0.058,0 0.09,-0.038 0.034,-0.041 0.034,-0.086 z m 0.705,-0.274 q 0,-0.133 -0.126,-0.208 -0.127,-0.077 -0.303,-0.077 -0.041,0 -0.104,0.018 -0.064,0.016 -0.064,0.041 0,0.03 0.165,0.1 0.168,0.067 0.227,0.217 l 0.009,0.036 q 0.009,0.038 0.024,0.06 0.019,0.021 0.043,0.021 0.041,0 0.084,-0.065 0.045,-0.068 0.045,-0.143 z m 6.043,0.034 q 0,0.16 -0.115,0.283 -0.115,0.122 -0.39,0.147 -0.277,0.025 -0.444,0.343 -0.167,0.32 -0.407,0.493 -0.237,0.174 -0.396,0.174 -0.106,0 -0.167,0.023 -0.059,0.023 -0.059,0.084 l 0.305,0.56 q 0.014,0.025 0.019,0.054 0.006,0.03 0.006,0.055 0,0.056 -0.025,0.104 Q 20.61,2.81 20.565,2.842 L 17.987,4.61 q -0.06,0.04 -0.126,0.04 -0.109,0 -0.168,-0.07 -0.058,-0.067 -0.058,-0.289 0,-0.461 0.192,-0.859 0.192,-0.398 0.757,-0.968 0.565,-0.57 1.074,-0.974 l 0.075,-0.059 q 0.01,-0.013 0.034,-0.025 l 0.388,-0.341 0.487,-0.42 0.28,-0.24 Q 21.125,0.231 21.34,0.115 21.555,0 21.767,0 q 0.204,0 0.371,0.129 0.167,0.126 0.167,0.314 z m -4.447,3.848 q 0.014,0.077 0.061,0.077 0.037,0 0.082,-0.034 L 18.094,4.268 20.33,2.733 Q 20.357,2.704 20.377,2.688 20.4,2.67 20.4,2.625 20.4,2.607 20.395,2.595 L 20.388,2.568 19.952,1.766 19.909,1.691 q -0.02,-0.036 -0.063,-0.038 -0.023,0 -0.043,0.006 Q 19.785,1.664 19.45,1.953 19.115,2.24 18.74,2.625 18.365,3.007 18.193,3.253 18.021,3.5 17.94,3.751 17.858,4.001 17.858,4.291 Z M 20.601,1.42 q 0,-0.043 -0.034,-0.082 -0.034,-0.04 -0.104,-0.04 -0.043,0 -0.077,0.03 -0.034,0.028 -0.034,0.094 0,0.05 0.032,0.088 0.034,0.036 0.097,0.036 0.057,0 0.088,-0.04 0.032,-0.041 0.032,-0.086 z m 0.834,-0.737 q 0,-0.043 -0.036,-0.082 -0.034,-0.04 -0.104,-0.04 -0.04,0 -0.077,0.031 -0.034,0.03 -0.034,0.09 0,0.048 0.034,0.087 0.034,0.038 0.093,0.038 0.058,0 0.09,-0.038 0.034,-0.041 0.034,-0.086 z M 22.14,0.409 q 0,-0.133 -0.126,-0.208 -0.127,-0.077 -0.303,-0.077 -0.04,0 -0.104,0.018 -0.063,0.016 -0.063,0.041 0,0.03 0.165,0.1 0.167,0.067 0.226,0.217 l 0.009,0.036 q 0.009,0.038 0.025,0.06 0.018,0.021 0.043,0.021 0.04,0 0.083,-0.065 0.045,-0.068 0.045,-0.143 z m 6.044,0.034 q 0,0.16 -0.116,0.283 -0.115,0.122 -0.39,0.147 -0.277,0.025 -0.444,0.343 -0.167,0.32 -0.407,0.493 -0.237,0.174 -0.395,0.174 -0.107,0 -0.168,0.023 -0.059,0.023 -0.059,0.084 l 0.306,0.56 q 0.013,0.025 0.018,0.054 0.007,0.03 0.007,0.055 0,0.056 -0.025,0.104 -0.023,0.047 -0.068,0.079 L 23.865,4.61 q -0.06,0.04 -0.126,0.04 -0.109,0 -0.167,-0.07 -0.06,-0.067 -0.06,-0.289 0,-0.461 0.193,-0.859 0.192,-0.398 0.757,-0.968 0.566,-0.57 1.074,-0.974 L 25.611,1.431 Q 25.622,1.418 25.645,1.406 L 26.034,1.065 26.52,0.645 26.8,0.405 Q 27.004,0.231 27.218,0.115 27.433,0 27.646,0 q 0.203,0 0.37,0.129 0.168,0.126 0.168,0.314 z m -4.447,3.848 q 0.013,0.077 0.06,0.077 0.037,0 0.082,-0.034 l 0.093,-0.066 2.236,-1.535 q 0.027,-0.029 0.047,-0.045 0.023,-0.018 0.023,-0.063 0,-0.018 -0.005,-0.03 Q 26.269,2.582 26.267,2.568 L 25.83,1.766 25.787,1.691 q -0.02,-0.036 -0.063,-0.038 -0.023,0 -0.043,0.006 -0.018,0.005 -0.353,0.294 -0.334,0.287 -0.71,0.672 -0.375,0.382 -0.547,0.628 -0.172,0.247 -0.253,0.498 -0.081,0.25 -0.081,0.54 z M 26.479,1.42 q 0,-0.043 -0.034,-0.082 -0.034,-0.04 -0.104,-0.04 -0.043,0 -0.077,0.03 -0.034,0.028 -0.034,0.094 0,0.05 0.032,0.088 0.034,0.036 0.097,0.036 0.057,0 0.088,-0.04 0.032,-0.041 0.032,-0.086 z m 0.834,-0.737 q 0,-0.043 -0.036,-0.082 -0.034,-0.04 -0.104,-0.04 -0.04,0 -0.077,0.031 -0.034,0.03 -0.034,0.09 0,0.048 0.034,0.087 0.034,0.038 0.093,0.038 0.059,0 0.09,-0.038 0.034,-0.041 0.034,-0.086 z m 0.706,-0.274 q 0,-0.133 -0.127,-0.208 -0.127,-0.077 -0.303,-0.077 -0.04,0 -0.104,0.018 -0.063,0.016 -0.063,0.041 0,0.03 0.165,0.1 0.167,0.067 0.226,0.217 l 0.009,0.036 q 0.009,0.038 0.025,0.06 0.018,0.021 0.043,0.021 0.04,0 0.083,-0.065 0.046,-0.068 0.046,-0.143 z m 6.043,0.034 q 0,0.16 -0.115,0.283 -0.116,0.122 -0.392,0.147 -0.275,0.025 -0.443,0.343 -0.167,0.32 -0.407,0.493 -0.237,0.174 -0.395,0.174 -0.107,0 -0.168,0.023 -0.058,0.023 -0.058,0.084 l 0.305,0.56 q 0.013,0.025 0.018,0.054 0.007,0.03 0.007,0.055 0,0.056 -0.025,0.104 -0.023,0.047 -0.068,0.079 L 29.744,4.61 q -0.061,0.04 -0.127,0.04 -0.108,0 -0.167,-0.07 -0.059,-0.067 -0.059,-0.289 0,-0.461 0.192,-0.859 0.192,-0.398 0.758,-0.968 0.565,-0.57 1.073,-0.974 L 31.489,1.431 Q 31.5,1.418 31.523,1.406 l 0.389,-0.341 0.486,-0.42 0.28,-0.24 Q 32.882,0.231 33.096,0.115 33.311,0 33.524,0 q 0.203,0 0.37,0.129 0.168,0.126 0.168,0.314 z m -4.447,3.848 q 0.013,0.077 0.06,0.077 0.037,0 0.082,-0.034 L 29.85,4.268 32.086,2.733 q 0.027,-0.029 0.047,-0.045 0.023,-0.018 0.023,-0.063 0,-0.018 -0.005,-0.03 Q 32.147,2.582 32.145,2.568 L 31.708,1.766 31.665,1.691 q -0.02,-0.036 -0.063,-0.038 -0.023,0 -0.043,0.006 -0.018,0.005 -0.353,0.294 -0.334,0.287 -0.71,0.672 -0.375,0.382 -0.547,0.628 -0.171,0.247 -0.253,0.498 -0.081,0.25 -0.081,0.54 z M 32.357,1.42 q 0,-0.043 -0.034,-0.082 -0.034,-0.04 -0.104,-0.04 -0.043,0 -0.077,0.03 -0.033,0.028 -0.033,0.094 0,0.05 0.031,0.088 0.034,0.036 0.097,0.036 0.057,0 0.089,-0.04 0.031,-0.041 0.031,-0.086 z m 0.834,-0.737 q 0,-0.043 -0.036,-0.082 -0.034,-0.04 -0.104,-0.04 -0.04,0 -0.077,0.031 -0.034,0.03 -0.034,0.09 0,0.048 0.034,0.087 0.034,0.038 0.093,0.038 0.059,0 0.09,-0.038 0.034,-0.041 0.034,-0.086 z m 0.706,-0.274 q 0,-0.133 -0.127,-0.208 -0.126,-0.077 -0.303,-0.077 -0.04,0 -0.104,0.018 -0.063,0.016 -0.063,0.041 0,0.03 0.165,0.1 0.167,0.067 0.226,0.217 l 0.01,0.036 q 0.008,0.038 0.024,0.06 0.018,0.021 0.043,0.021 0.04,0 0.084,-0.065 0.045,-0.068 0.045,-0.143 z"
       id="path830" />
  </g>
</svg>
